<svg version="1.1" viewBox="0.0 0.0 121.99737532808399 114.15485564304461" fill="none" stroke="none" stroke-linecap="square" stroke-miterlimit="10" xmlns:xlink="http://www.w3.org/1999/xlink" xmlns="http://www.w3.org/2000/svg"><clipPath id="p.0"><path d="m0 0l121.997375 0l0 114.154854l-121.997375 0l0 -114.154854z" clip-rule="nonzero"/></clipPath><g clip-path="url(#p.0)"><path fill="#000000" fill-opacity="0.0" d="m0 0l121.997375 0l0 114.154854l-121.997375 0z" fill-rule="evenodd"/><path fill="#134f5c" d="m-0.16535433 14.609216l0 0c0 -8.068447 6.5407686 -14.609216 14.609217 -14.609216l92.765816 0c3.874611 0 7.590523 1.5391809 10.3302765 4.27894c2.7397614 2.7397594 4.278946 6.4556713 4.278946 10.330276l0 58.435112c0 8.068451 -6.5407715 14.609215 -14.609222 14.609215l-92.765816 0c-8.068447 0 -14.609217 -6.540764 -14.609217 -14.609215z" fill-rule="evenodd"/><path fill="#a2c4c9" d="m6.5485563 33.48819l83.74287 0l26.398872 26.398869l0 54.262547l-110.14174 0z" fill-rule="evenodd"/><path fill="#ffffff" d="m6.5485563 7.614226l0 0c0 -1.4553938 1.1798296 -2.6352234 2.6352234 -2.6352234l104.87129 0c0.6988983 0 1.3691788 0.2776389 1.8633804 0.77183914c0.49420166 0.49420023 0.77184296 1.1644797 0.77184296 1.8633842l0 10.540577c0 1.4553947 -1.1798325 2.6352234 -2.6352234 2.6352234l-104.87129 0c-1.4553938 0 -2.6352234 -1.1798286 -2.6352234 -2.6352234z" fill-rule="evenodd"/></g></svg>