<svg version="1.1" viewBox="0.0 0.0 671.1863517060367 668.3700787401575" fill="none" stroke="none" stroke-linecap="square" stroke-miterlimit="10" xmlns:xlink="http://www.w3.org/1999/xlink" xmlns="http://www.w3.org/2000/svg"><clipPath id="p.0"><path d="m0 0l671.18634 0l0 668.37006l-671.18634 0l0 -668.37006z" clip-rule="nonzero"/></clipPath><g clip-path="url(#p.0)"><path fill="#000000" fill-opacity="0.0" d="m0 0l671.18634 0l0 668.37006l-671.18634 0z" fill-rule="evenodd"/><path fill="#134f5c" d="m8.713911 75.350464l0 0c0 -38.072174 30.863592 -68.93577 68.93576 -68.93577l514.8214 0c18.282898 0 35.816956 7.262854 48.744934 20.190817c12.9279785 12.927963 20.190796 30.462044 20.190796 48.74495l0 275.73477c0 38.072174 -30.863586 68.93576 -68.93573 68.93576l-514.8214 0c-38.07217 0 -68.93576 -30.863586 -68.93576 -68.93576z" fill-rule="evenodd"/><path fill="#a2c4c9" d="m139.46194 138.55412l347.21646 0l69.44495 69.44496l0 433.54718l-416.6614 0z" fill-rule="evenodd"/><path fill="#45818e" d="m158.00783 270.00946l99.47841 -99.47841l0 30.237457l-68.14569 68.145706l68.14569 68.14566l0 32.42798z" fill-rule="evenodd"/><path fill="#45818e" d="m447.31036 270.009l-99.47839 99.47839l0 -30.237457l68.14569 -68.14569l-68.14569 -68.14569l0 -32.427963z" fill-rule="evenodd"/><path fill="#45818e" d="m341.63492 156.96257l-53.099213 231.78398l-24.852783 -5.689575l53.099182 -231.78401z" fill-rule="evenodd"/><path fill="#ffffff" d="m120.04462 35.29154l0 0c0 -5.5345535 4.4866486 -10.021196 10.021194 -10.021196l494.13086 0c2.6577759 0 5.206726 1.0558014 7.0860596 2.9351406c1.8793335 1.8793392 2.9351196 4.4282684 2.9351196 7.0860558l0 40.08359c0 5.5345535 -4.4866333 10.021194 -10.021179 10.021194l-494.13086 0c-5.534546 0 -10.021194 -4.486641 -10.021194 -10.021194z" fill-rule="evenodd"/><path fill="#45818e" d="m41.95013 35.29154l0 0c0 -5.5345535 4.4866447 -10.021196 10.021198 -10.021196l48.682014 0c2.6577835 0 5.2067184 1.0558014 7.0860596 2.9351406c1.8793335 1.8793392 2.935135 4.4282684 2.935135 7.0860558l0 40.08359c0 5.5345535 -4.486641 10.021194 -10.021194 10.021194l-48.682014 0c-5.5345535 0 -10.021198 -4.486641 -10.021198 -10.021194z" fill-rule="evenodd"/><path fill="#45818e" d="m495.10873 445.59366l-151.17386 151.1901l-57.501892 -57.508057l151.17386 -151.1901z" fill-rule="evenodd"/><path fill="#45818e" d="m340.42896 600.202l-65.552765 8.139832l8.139008 -65.55975z" fill-rule="evenodd"/><path fill="#45818e" d="m484.0983 353.96432l45.13156 45.136383c1.6287231 1.6289062 2.5437012 3.8381348 2.5437012 6.141754c0 2.3036194 -0.914978 4.5128784 -2.5437012 6.141754l-30.704773 30.708069c-2.746582E-4 2.746582E-4 -7.019043E-4 2.746582E-4 -9.765625E-4 0l-57.41278 -57.41989l0 0c-2.746582E-4 -2.746582E-4 -2.746582E-4 -7.019043E-4 0 -9.765625E-4l30.704773 -30.707092l0 0c3.391632 -3.3919983 8.890564 -3.3919983 12.282196 0z" fill-rule="evenodd"/></g></svg>